<?xml version="1.0" standalone="no"?>
<!DOCTYPE svg PUBLIC "-//W3C//DTD SVG 20010904//EN"
 "http://www.w3.org/TR/2001/REC-SVG-20010904/DTD/svg10.dtd">
<svg class="herow-arrow" version="1.0"   viewBox="0 0 202 115"
        fill="none"
        aria-hidden="true" xmlns="http://www.w3.org/2000/svg"
 width="1193.000000pt" height="548.000000pt" viewBox="0 0 1193.000000 548.000000"
 preserveAspectRatio="xMidYMid meet">

<g transform="translate(0.000000,548.000000) scale(0.100000,-0.100000)"
fill="#000000" stroke="none">
<path d="M2950 4830 c-363 -18 -748 -86 -982 -174 -299 -113 -680 -318 -782
-420 -63 -62 -83 -153 -38 -171 23 -9 37 11 34 50 -6 68 102 153 388 303 481
252 864 344 1485 359 303 7 444 -7 663 -63 474 -121 839 -370 995 -679 35 -71
82 -208 98 -290 15 -78 17 -322 2 -370 -8 -27 -14 -30 -54 -32 -214 -12 -418
-53 -669 -135 -290 -94 -419 -168 -471 -271 -25 -48 -27 -123 -4 -166 65 -126
468 -116 750 18 192 91 400 297 461 457 15 39 20 44 48 44 50 -1 234 -27 316
-46 195 -44 571 -195 749 -300 245 -146 712 -507 898 -695 131 -134 320 -352
399 -461 116 -162 299 -498 423 -781 34 -75 75 -165 92 -198 16 -34 28 -63 26
-66 -3 -2 -57 28 -120 66 -110 68 -160 85 -169 59 -7 -20 2 -38 19 -38 8 0 75
-37 149 -82 l135 -82 20 21 c15 14 22 38 26 83 2 35 13 96 23 136 26 103 97
278 120 299 24 22 25 38 4 56 -14 12 -20 9 -44 -20 -29 -34 -111 -238 -131
-326 -7 -27 -14 -53 -18 -57 -3 -4 -35 59 -70 140 -127 289 -318 646 -429 802
-132 185 -413 496 -566 627 -214 184 -622 483 -792 581 -279 161 -714 306
-986 328 l-88 7 8 41 c4 22 7 106 6 186 -1 113 -6 165 -23 235 -54 223 -182
437 -342 575 -235 202 -576 356 -934 421 -103 18 -357 40 -435 37 -19 0 -105
-4 -190 -8z m1830 -1552 c0 -30 -82 -151 -154 -225 -103 -108 -179 -165 -291
-219 -109 -53 -211 -80 -353 -94 -166 -16 -294 7 -322 59 -18 35 -11 85 19
132 53 85 193 157 471 243 192 59 318 86 515 109 69 9 115 7 115 -5z"/>
</g>
</svg>
